<svg width="44" height="44" viewBox="0 0 44 44" fill="none" xmlns="http://www.w3.org/2000/svg">
<path d="M7.3335 34.8334V31.1667H11.0002V18.3334C11.0002 15.7972 11.7641 13.5514 13.2918 11.5959C14.8196 9.60974 16.8057 8.31113 19.2502 7.70002V6.41669C19.2502 5.6528 19.5099 5.01113 20.0293 4.49168C20.5793 3.94169 21.2363 3.66669 22.0002 3.66669C22.7641 3.66669 23.4057 3.94169 23.9252 4.49168C24.4752 5.01113 24.7502 5.6528 24.7502 6.41669V7.70002C27.1946 8.31113 29.1807 9.60974 30.7085 11.5959C32.2363 13.5514 33.0002 15.7972 33.0002 18.3334V31.1667H36.6668V34.8334H7.3335ZM22.0002 40.3334C20.9918 40.3334 20.121 39.982 19.3877 39.2792C18.6849 38.5459 18.3335 37.675 18.3335 36.6667H25.6668C25.6668 37.675 25.3002 38.5459 24.5668 39.2792C23.8641 39.982 23.0085 40.3334 22.0002 40.3334ZM14.6668 31.1667H29.3335V18.3334C29.3335 16.3167 28.6154 14.5903 27.1793 13.1542C25.7432 11.7181 24.0168 11 22.0002 11C19.9835 11 18.2571 11.7181 16.821 13.1542C15.3849 14.5903 14.6668 16.3167 14.6668 18.3334V31.1667Z" fill="#fff"/>
</svg>
