<svg width="30" height="30" viewBox="0 0 30 30" fill="#fff" xmlns="http://www.w3.org/2000/svg">
<path d="M15.0002 15C12.9835 15 11.2571 14.2819 9.821 12.8458C8.38489 11.4097 7.66683 9.68331 7.66683 7.66665C7.66683 5.64998 8.38489 3.92359 9.821 2.48748C11.2571 1.05137 12.9835 0.333313 15.0002 0.333313C17.0168 0.333313 18.7432 1.05137 20.1793 2.48748C21.6154 3.92359 22.3335 5.64998 22.3335 7.66665C22.3335 9.68331 21.6154 11.4097 20.1793 12.8458C18.7432 14.2819 17.0168 15 15.0002 15ZM0.333496 29.6666V24.5333C0.333496 23.4944 0.600857 22.5396 1.13558 21.6687C1.6703 20.7979 2.38072 20.1333 3.26683 19.675C5.16127 18.7278 7.08627 18.0173 9.04183 17.5437C10.9974 17.0701 12.9835 16.8333 15.0002 16.8333C17.0168 16.8333 19.0029 17.0701 20.9585 17.5437C22.9141 18.0173 24.8391 18.7278 26.7335 19.675C27.6196 20.1333 28.33 20.7979 28.8647 21.6687C29.3995 22.5396 29.6668 23.4944 29.6668 24.5333V29.6666H0.333496ZM4.00016 26H26.0002V24.5333C26.0002 24.1972 25.9161 23.8916 25.7481 23.6166C25.58 23.3416 25.3585 23.1278 25.0835 22.975C23.4335 22.15 21.7682 21.5312 20.0877 21.1187C18.4071 20.7062 16.7113 20.5 15.0002 20.5C13.2891 20.5 11.5932 20.7062 9.91266 21.1187C8.23211 21.5312 6.56683 22.15 4.91683 22.975C4.64183 23.1278 4.4203 23.3416 4.25225 23.6166C4.08419 23.8916 4.00016 24.1972 4.00016 24.5333V26ZM15.0002 11.3333C16.0085 11.3333 16.8717 10.9743 17.5897 10.2562C18.3078 9.53817 18.6668 8.67498 18.6668 7.66665C18.6668 6.65831 18.3078 5.79512 17.5897 5.07706C16.8717 4.35901 16.0085 3.99998 15.0002 3.99998C13.9918 3.99998 13.1286 4.35901 12.4106 5.07706C11.6925 5.79512 11.3335 6.65831 11.3335 7.66665C11.3335 8.67498 11.6925 9.53817 12.4106 10.2562C13.1286 10.9743 13.9918 11.3333 15.0002 11.3333Z" fill="#fff"/>
</svg>
